<svg xmlns="http://www.w3.org/2000/svg" style="display: none;">
  <!-- Icons from main.js -->
  <symbol id="icon-unfold" viewBox="0 0 1024 1024">
    <path d="M672 160c0 8.2-3.1 16.4-9.4 22.6L333.3 512l329.4 329.4c12.5 12.5 12.5 32.8 0 45.3s-32.8 12.5-45.3 0l-352-352c-12.5-12.5-12.5-32.8 0-45.3l352-352c12.5-12.5 32.8-12.5 45.3 0 6.2 6.2 9.3 14.4 9.3 22.6z" fill="currentColor"></path>
  </symbol>
  <symbol id="icon-edit" viewBox="0 0 1024 1024">
    <path d="M776.375 848.18164063H245.42773437c-54.31640625 0-98.52539063-43.06640625-98.52539062-95.97656251v-509.76562499c0-52.91015625 44.20898438-95.9765625 98.52539063-95.97656251h322.91015624c19.42382813 0 35.15625 15.73242188 35.15625001 35.15625s-15.73242188 35.15625-35.15625 35.15625H245.42773437c-15.55664063 0-28.21289063 11.51367188-28.21289062 25.6640625v509.67773438c0 14.15039063 12.65625 25.6640625 28.21289063 25.6640625h530.94726562c15.55664063 0 28.21289063-11.51367188 28.21289063-25.6640625V455.83789062c0-19.42382813 15.73242188-35.15625 35.15624999-35.15625s35.15625 15.73242188 35.15625 35.15625v296.27929688c0 52.99804688-44.12109375 96.06445313-98.52539062 96.06445313zM376.6484375 658.51367188c-9.31640625 0-18.54492188-3.69140625-25.48828125-10.89843751-13.359375-14.0625-12.83203125-36.29882813 1.14257813-49.74609375L833.6796875 138.9921875c14.0625-13.359375 36.29882813-12.83203125 49.74609375 1.14257813 13.359375 14.0625 12.83203125 36.29882813-1.14257813 49.74609375L400.90625 648.7578125c-6.76757813 6.50390625-15.55664063 9.75585938-24.2578125 9.75585938z" fill="currentColor"></path>
  </symbol>
  <symbol id="icon-transfer" viewBox="0 0 1024 1024">
    <path d="M469.333333 213.333333a213.333333 213.333333 0 0 0-209.749333 252.544l7.466667 40.192-39.850667 9.173334A128.042667 128.042667 0 0 0 256 768h469.333333a170.666667 170.666667 0 1 0-2.858666-341.333333l-36.693334 0.597333-6.058666-36.181333A213.418667 213.418667 0 0 0 469.333333 213.333333z m-298.666666 213.333334a298.666667 298.666667 0 0 1 585.514666-83.498667A256.042667 256.042667 0 0 1 725.333333 853.333333H256a213.333333 213.333333 0 0 1-84.821333-409.130666A302.592 302.592 0 0 1 170.666667 426.666667z" fill="currentColor"></path>
  </symbol>
  <symbol id="icon-transferred" viewBox="0 0 200 200">
    <path d="M91.6667 41.6667C85.5453 41.6652 79.4987 43.0126 73.9571 45.6129C68.4154 48.2133 63.5148 52.0027 59.6037 56.7118C55.6926 61.4208 52.8672 66.9338 51.3283 72.8586C49.7894 78.7834 49.5749 84.9745 50.7 90.9917L52.1583 98.8417L44.375 100.633C38.3989 102.023 33.1422 105.561 29.6051 110.575C26.068 115.588 24.4974 121.727 25.192 127.823C25.8866 133.919 28.798 139.547 33.3723 143.636C37.9465 147.725 43.8644 149.99 50 150H141.667C146.044 149.963 150.371 149.065 154.402 147.356C158.432 145.647 162.086 143.161 165.155 140.04C168.224 136.918 170.649 133.223 172.29 129.165C173.932 125.107 174.757 120.765 174.721 116.388C174.684 112.01 173.786 107.683 172.077 103.653C170.368 99.6225 167.882 95.9684 164.76 92.899C161.639 89.8297 157.944 87.4051 153.886 85.7639C149.827 84.1226 145.486 83.2967 141.108 83.3333L133.942 83.45L132.758 76.3833C131.113 66.6755 126.084 57.8637 118.562 51.5092C111.041 45.1547 101.513 41.6679 91.6667 41.6667ZM33.3333 83.3333C33.3186 69.2787 38.3788 55.6912 47.5832 45.0698C56.7876 34.4485 69.5173 27.5074 83.4312 25.5232C97.3451 23.539 111.508 26.645 123.314 34.2701C135.121 41.8951 143.777 53.5265 147.692 67.025C160.322 68.5803 171.884 74.8921 180.023 84.6746C188.161 94.4571 192.265 106.974 191.497 119.677C190.729 132.379 185.147 144.311 175.889 153.041C166.63 161.772 154.392 166.645 141.667 166.667H50C40.414 166.672 31.1193 163.372 23.683 157.323C16.2467 151.273 11.1237 142.845 9.17771 133.459C7.2317 124.072 8.58174 114.302 13.0002 105.795C17.4187 97.2877 24.6353 90.5644 33.4333 86.7583C33.3669 85.6179 33.3336 84.4757 33.3333 83.3333Z" fill="currentColor"/><path d="M125.711 90C124.35 89.9988 123.009 90.3016 121.808 90.8816C120.607 91.4616 119.583 92.3009 118.826 93.325L94.147 125.82L79.0953 112.195C77.5371 110.808 75.4363 110.034 73.2506 110.042C71.0649 110.05 68.9714 110.84 67.426 112.239C65.8807 113.638 65.0087 115.534 65.0001 117.512C64.9914 119.491 65.8468 121.392 67.3799 122.802L89.4741 142.802C90.2423 143.5 91.1553 144.053 92.1606 144.43C93.1659 144.808 94.2436 145.001 95.3318 145C96.693 145.001 98.0335 144.698 99.2345 144.118C100.436 143.538 101.46 142.699 102.217 141.675L132.511 101.79C133.377 100.665 133.886 99.3472 133.983 97.979C134.08 96.6107 133.76 95.2445 133.059 94.0291C132.358 92.8137 131.303 91.7954 130.007 91.0851C128.712 90.3747 127.226 89.9994 125.711 90Z" fill="currentColor"/></symbol>
  <symbol id="icon-delete" viewBox="0 0 1024 1024">
    <path d="M848.7 350.8c-0.1-31.7-12.5-47.5-36.4-47.7-23.8-0.2-37 15.8-37.1 47.2-0.2 156.9-0.1 313.7-0.1 470.6h-1.3c0 50.8-12.8 64.1-63 64.1-66 0.1-132 0.2-198 0.2s-132 0-198-0.2c-50.2-0.1-62.9-13.4-63-64.1h-1.3c-0.1-156.9 0.1-313.7-0.1-470.6 0-31.4-13.3-47.4-37.1-47.2-23.8 0.2-36.3 16.1-36.4 47.7-0.2 81.6-0.1 163.1-0.1 244.7 0 79.6-0.3 159.1 0.1 238.7 0.4 78 48.8 125.4 127.4 125.5h417c78.5 0 127-47.5 127.4-125.5 0.4-79.6 0.1-159.1 0.1-238.7 0-81.6 0.1-163.1-0.1-244.7z m73.4-101.3c-2.8-26.4-19.6-36.6-45.5-36.2-46.7 0.7-93.5 0.2-140.2 0.2h-75c0-28.8 0.6-53.6-0.1-78.3-1.3-42.3-27.2-69.7-68.9-70.6-53.7-1.2-107.4-1.2-161.1 0-42 0.9-67.3 28.3-68.2 70.9-0.5 24.7-0.1 49.4-0.1 78h-33.5c-60.7 0-121.3-0.2-182 0.1-28.2 0.1-45 13.8-45.7 36-0.7 23.6 16.4 37.8 46.4 38.5 7 0.2 13.9 0 20.9 0h498.3c69.6 0 139.3 0.2 208.9-0.1 29.8-0.2 48.3-15.4 45.8-38.5z m-337.5-37.2H440.1v-71.5h144.6v71.5z" fill="currentColor"></path> <path d="M362.8 723.9c0.2 31.9 14.6 50.3 38.2 49.6 22.8-0.7 36.1-17.7 36.2-48.7 0.4-84.3 0.3-168.5 0.1-252.8-0.1-33.1-13.7-49.8-38.4-49.1-23.7 0.7-35.9 16.6-36.1 48.2-0.3 41.6-0.1 83.3-0.1 124.9 0 42.6-0.1 85.3 0.1 127.9z m224 2.5c0.4 30.6 14.7 47.5 37.8 47.1 22.8-0.4 36.6-17.9 36.6-48.2 0.2-85.3 0.3-170.5 0-255.8-0.1-30.6-13.8-47-37.7-46.7-23.5 0.3-36.5 16.6-36.8 47.8-0.4 41.6-0.1 83.3-0.1 124.9 0 43.6-0.4 87.2 0.2 130.9z" fill="currentColor"></path>
  </symbol>
  <symbol id="icon-view" viewBox="0 0 200 200">
    <path d="M95.5 33C126.551 33 154.861 52.4506 180.425 91.3518C182.001 93.7508 182.89 96.5558 182.99 99.4476C183.091 102.339 182.399 105.202 180.992 107.71L180.425 108.648L178.999 110.787C153.812 148.261 125.974 167 95.5 167C64.4488 167 36.1387 147.549 10.5748 108.648C8.99862 106.249 8.10983 103.444 8.00954 100.552C7.90925 97.6605 8.60149 94.7978 10.0075 92.2898L10.5748 91.3518L12.0006 89.213C37.188 51.7394 65.0261 33 95.5 33ZM95.5 48.4615C70.6088 48.4615 47.0129 64.3457 24.4412 97.9282L23.0606 100L24.4462 102.077C47.038 135.67 70.6289 151.538 95.5 151.538C120.391 151.538 143.987 135.654 166.559 102.072L167.939 100L166.554 97.923C143.962 64.3302 120.371 48.4615 95.5 48.4615ZM95.5 67.1803C99.9065 67.1248 104.28 67.9678 108.367 69.6604C112.453 71.3531 116.172 73.8618 119.307 77.041C122.442 80.2202 124.932 84.0067 126.63 88.1809C128.329 92.3552 129.204 96.8341 129.204 101.358C129.204 105.882 128.329 110.361 126.63 114.535C124.932 118.709 122.442 122.496 119.307 125.675C116.172 128.854 112.453 131.363 108.367 133.056C104.28 134.748 99.9065 135.591 95.5 135.536C86.741 135.425 78.3772 131.776 72.2214 125.378C66.0655 118.981 62.6135 110.351 62.6135 101.358C62.6135 92.3656 66.0655 83.7353 72.2214 77.3378C78.3772 70.9402 86.741 67.2907 95.5 67.1803ZM95.5 82.6418C93.0803 82.6006 90.6769 83.0543 88.4297 83.9763C86.1826 84.8984 84.1367 86.2705 82.4114 88.0125C80.6861 89.7546 79.3158 91.8317 78.3804 94.123C77.4451 96.4142 76.9633 98.8737 76.9633 101.358C76.9633 103.842 77.4451 106.302 78.3804 108.593C79.3158 110.884 80.6861 112.962 82.4114 114.704C84.1367 116.446 86.1826 117.818 88.4297 118.74C90.6769 119.662 93.0803 120.115 95.5 120.074C100.283 119.993 104.843 117.985 108.197 114.484C111.552 110.983 113.432 106.269 113.432 101.358C113.432 96.4473 111.552 91.7332 108.197 88.2321C104.843 84.731 100.283 82.7233 95.5 82.6418Z" fill="currentColor"></path>
  </symbol>
  <symbol id="icon-pin" viewBox="0 0 1024 1024">
    <path d="M355.157333 42.666667h313.728c15.402667 0 29.781333 0 41.514667 1.066666 12.288 1.109333 27.605333 3.754667 41.728 13.141334a85.333333 85.333333 0 0 1 36.437333 53.76c3.413333 16.64 0.213333 31.829333-3.328 43.648-3.370667 11.306667-8.704 24.618667-14.421333 38.954666l-43.648 109.056-1.749333 4.522667-0.042667 0.085333v95.786667l0.042667 8.874667v0.128l0.085333 0.085333 5.461333 6.954667 68.181334 85.205333c13.141333 16.469333 24.832 31.061333 33.024 43.434667 7.978667 12.074667 17.706667 29.184 17.749333 49.877333a85.333333 85.333333 0 0 1-32.128 66.773333c-16.128 12.885333-35.584 16-50.005333 17.322667-14.762667 1.322667-33.450667 1.322667-54.613334 1.322667H554.666667v256a42.666667 42.666667 0 1 1-85.333334 0v-256H310.826667c-21.12 0-39.808 0-54.613334-1.322667-14.378667-1.322667-33.834667-4.437333-50.005333-17.322667a85.333333 85.333333 0 0 1-32.085333-66.773333c0-20.693333 9.770667-37.802667 17.749333-49.877333 8.192-12.373333 19.84-26.965333 33.024-43.477334L293.12 418.730667c2.986667-3.754667 4.437333-5.546667 5.461333-6.954667l0.085334-0.085333v-0.128A258.133333 258.133333 0 0 0 298.666667 402.730667v-90.88V306.773333a253.056 253.056 0 0 0-1.792-4.522666L253.866667 194.773333l-0.64-1.536c-5.717333-14.336-11.093333-27.648-14.421334-38.954666-3.541333-11.818667-6.784-27.008-3.328-43.648a85.333333 85.333333 0 0 1 36.394667-53.76c14.165333-9.386667 29.482667-12.032 41.813333-13.141334C325.333333 42.666667 339.669333 42.666667 355.114667 42.666667z m356.138667 554.666666c23.594667 0 38.357333-0.042667 48.768-0.981333l2.005333-0.213333a81.792 81.792 0 0 0-1.066666-1.706667c-5.802667-8.746667-14.933333-20.266667-29.696-38.698667l-66.986667-83.712-1.152-1.450666a118.528 118.528 0 0 1-13.824-20.053334 85.205333 85.205333 0 0 1-7.594667-21.674666 118.314667 118.314667 0 0 1-1.706666-24.277334V311.850667v-1.066667c0-3.84 0-8.661333 0.512-13.653333 0.512-4.266667 1.322667-8.533333 2.474666-12.714667 1.28-4.778667 3.114667-9.301333 4.565334-12.842667l0.341333-0.938666 43.008-107.52a455.424 455.424 0 0 0 12.8-34.304l-1.066667-0.085334A455.552 455.552 0 0 0 667.178667 128H356.864a455.552 455.552 0 0 0-36.608 0.853333l0.298667 1.024c2.133333 7.125333 5.973333 16.810667 12.544 33.237334l42.965333 107.52 0.426667 0.938666a85.333333 85.333333 0 0 1 7.552 39.253334v93.738666c0 6.912 0 15.616-1.749334 24.32a85.290667 85.290667 0 0 1-7.637333 21.632 118.528 118.528 0 0 1-14.933333 21.504l-66.986667 83.712c-14.72 18.432-23.893333 29.952-29.696 38.698667a85.333333 85.333333 0 0 0-1.109333 1.706667l2.048 0.213333c10.410667 0.938667 25.173333 0.981333 48.725333 0.981333h398.592z" fill="currentColor"></path>
  </symbol>

  <symbol id="icon-back" viewBox="0 0 1024 1024">
    <path d="M395.21518 513.604544l323.135538-312.373427c19.052938-18.416442 19.052938-48.273447 0-66.660212-19.053961-18.416442-49.910737-18.416442-68.964698 0L291.75176 480.290811c-19.052938 18.416442-19.052938 48.273447 0 66.660212l357.633237 345.688183c9.525957 9.207709 22.01234 13.796214 34.497699 13.796214 12.485359 0 24.971741-4.588505 34.466999-13.82896 19.052938-18.416442 19.052938-48.242747 0-66.660212L395.21518 513.604544z" fill="currentColor"></path>
  </symbol>
  <symbol id="icon-settings" viewBox="0 0 1024 1024">
    <path d="M857.6 213.333333L597.333333 64c-53.333333-29.866667-117.333333-29.866667-170.666666 0L166.4 215.466667c-53.333333 29.866667-85.333333 85.333333-85.333333 147.2v300.8c0 59.733333 32 117.333333 85.333333 147.2L426.666667 960c53.333333 29.866667 117.333333 29.866667 170.666666 0l260.266667-151.466667c53.333333-29.866667 85.333333-85.333333 85.333333-147.2V360.533333c0-59.733333-32-117.333333-85.333333-147.2z m0 448c0 32-17.066667 59.733333-42.666667 74.666667l-260.266666 149.333333c-25.6 14.933333-59.733333 14.933333-85.333334 0l-260.266666-149.333333c-25.6-17.066667-42.666667-44.8-42.666667-74.666667V362.666667c0-32 17.066667-59.733333 42.666667-74.666667l260.266666-149.333333c25.6-17.066667 59.733333-17.066667 85.333334 0l260.266666 149.333333c25.6 17.066667 42.666667 44.8 42.666667 74.666667v298.666666z" fill="currentColor"></path>
    <path d="M512 341.333333c-93.866667 0-170.666667 76.8-170.666667 170.666667s76.8 170.666667 170.666667 170.666667 170.666667-76.8 170.666667-170.666667-76.8-170.666667-170.666667-170.666667z m0 256c-46.933333 0-85.333333-38.4-85.333333-85.333333s38.4-85.333333 85.333333-85.333333 85.333333 38.4 85.333333 85.333333-38.4 85.333333-85.333333 85.333333z" fill="currentColor"></path>
  </symbol>
  <symbol id="icon-emoji" viewBox="0 0 1024 1024">
    <path d="M512 85.290667c235.690667 0 426.752 191.061333 426.752 426.752 0 235.648-191.061333 426.709333-426.752 426.709333-235.690667 0-426.752-191.061333-426.752-426.709333C85.248 276.352 276.309333 85.290667 512 85.290667z m0 64a362.752 362.752 0 1 0 0 725.461333A362.752 362.752 0 0 0 512 149.333333zM361.045333 630.784A191.616 191.616 0 0 0 512 704.085333a191.658667 191.658667 0 0 0 150.826667-73.130666 32 32 0 1 1 50.218666 39.68A255.616 255.616 0 0 1 512 768.085333a255.616 255.616 0 0 1-201.216-97.706666 32 32 0 0 1 50.261333-39.594667zM384 373.333333a53.333333 53.333333 0 1 1 0 106.624A53.333333 53.333333 0 0 1 384 373.333333z m256 0a53.333333 53.333333 0 1 1 0 106.624 53.333333 53.333333 0 0 1 0-106.624z" fill="currentColor"></path>
  </symbol>
  <symbol id="icon-search" viewBox="0 0 16 16">
    <circle cx="6.5" cy="6.5" r="5.5" fill="none" stroke="currentColor" stroke-width="1.5" />
    <path d="M11 11L14 14" stroke="currentColor" stroke-width="1.5" stroke-linecap="round" />
  </symbol>
  <symbol id="icon-github" viewBox="0 0 1024 1024">
    <path d="M64 512c0 195.2 124.8 361.6 300.8 422.4 22.4 6.4 19.2-9.6 19.2-22.4v-76.8c-134.4 16-140.8-73.6-150.4-89.6-19.2-32-60.8-38.4-48-54.4 32-16 64 3.2 99.2 57.6 25.6 38.4 76.8 32 105.6 25.6 6.4-22.4 19.2-44.8 35.2-60.8-144-22.4-201.6-108.8-201.6-211.2 0-48 16-96 48-131.2-22.4-60.8 0-115.2 3.2-121.6 57.6-6.4 118.4 41.6 124.8 44.8 32-9.6 70.4-12.8 112-12.8 41.6 0 80 6.4 112 12.8 12.8-9.6 67.2-48 121.6-44.8 3.2 6.4 25.6 57.6 6.4 118.4 32 38.4 48 83.2 48 131.2 0 102.4-57.6 188.8-201.6 214.4 22.4 22.4 38.4 54.4 38.4 92.8v112c0 9.6 0 19.2 16 19.2C832 876.8 960 710.4 960 512c0-246.4-201.6-448-448-448S64 265.6 64 512z" fill="currentColor"></path>
  </symbol>
  <symbol id="icon-qrcode" viewBox="0 0 1024 1024">
    <path d="M173.364 348.568V122.364L399.455 122.251L399.568 348.455L173.364 348.568ZM399.568 47H173.251C153.302 47.0299 134.179 54.9677 120.073 69.0734C105.968 83.1792 98.0299 102.302 98 122.251V348.568C98.0299 368.516 105.968 387.639 120.073 401.745C134.179 415.851 153.302 423.788 173.251 423.818H399.568C419.516 423.788 438.639 415.851 452.745 401.745C466.851 387.639 474.788 368.516 474.818 348.568V122.251C474.788 102.302 466.851 83.1792 452.745 69.0734C438.639 54.9677 419.516 47.0299 399.568 47ZM173.364 800.749V574.545L399.455 574.432L399.568 800.636L173.364 800.749ZM399.568 499.182H173.251C153.302 499.212 134.179 507.15 120.073 521.255C105.968 535.361 98.0299 554.484 98 574.432V800.749C98.0299 820.698 105.968 839.821 120.073 853.927C134.179 868.032 153.302 875.97 173.251 876H399.568C419.516 875.97 438.639 868.032 452.745 853.927C466.851 839.821 474.788 820.698 474.818 800.749V574.432C474.788 554.484 466.851 535.361 452.745 521.255C438.639 507.15 419.516 499.212 399.568 499.182ZM625.545 348.568V122.364L851.636 122.251L851.749 348.455L625.545 348.568ZM851.749 47H625.432C605.484 47.0299 586.361 54.9677 572.255 69.0734C558.15 83.1792 550.212 102.302 550.182 122.251V348.568C550.212 368.516 558.15 387.639 572.255 401.745C586.361 415.851 605.484 423.788 625.432 423.818H851.749C871.698 423.788 890.821 415.851 904.927 401.745C919.032 387.639 926.97 368.516 927 348.568V122.251C926.97 102.302 919.032 83.1792 904.927 69.0734C890.821 54.9677 871.698 47.0299 851.749 47ZM738.591 574.545C728.597 574.545 719.013 578.515 711.946 585.582C704.879 592.649 700.909 602.233 700.909 612.227V838.318C700.909 848.312 704.879 857.897 711.946 864.963C719.013 872.03 728.597 876 738.591 876C748.585 876 758.169 872.03 765.236 864.963C772.303 857.897 776.273 848.312 776.273 838.318V612.227C776.273 602.233 772.303 592.649 765.236 585.582C758.169 578.515 748.585 574.545 738.591 574.545ZM587.864 574.545C577.87 574.545 568.285 578.515 561.219 585.582C554.152 592.649 550.182 602.233 550.182 612.227V838.318C550.182 848.312 554.152 857.897 561.219 864.963C568.285 872.03 577.87 876 587.864 876C597.857 876 607.442 872.03 614.509 864.963C621.575 857.897 625.545 848.312 625.545 838.318V612.227C625.545 602.233 621.575 592.649 614.509 585.582C607.442 578.515 597.857 574.545 587.864 574.545ZM889.318 499.182C879.324 499.182 869.74 503.152 862.673 510.219C855.606 517.285 851.636 526.87 851.636 536.864V838.318C851.636 848.312 855.606 857.897 862.673 864.963C869.74 872.03 879.324 876 889.318 876C899.312 876 908.897 872.03 915.963 864.963C923.03 857.897 927 848.312 927 838.318V536.864C927 526.87 923.03 517.285 915.963 510.219C908.897 503.152 899.312 499.182 889.318 499.182Z" fill="currentColor"></path>
  </symbol>
  <symbol id="icon-folder" viewBox="0 0 1024 1024">
    <path d="M77.0594 97H412.763L491.923 198.178H948V846H77V97H77.0594ZM156.22 177.955V765.045H868.84V279.194H453.917L374.756 177.955H156.22Z" fill="currentColor"/>
  </symbol>
  <symbol id="icon-clear" viewBox="0 0 1024 1024">
    <path d="M930.568 806.633L873.26 481.254H892.615C908.186 481.254 920.729 468.903 920.729 453.571V249.145C920.729 233.813 908.186 221.462 892.615 221.462H626.617V27.6827C626.617 12.3508 614.074 0 598.504 0H425.497C409.926 0 397.384 12.3508 397.384 27.6827V221.462H131.386C115.815 221.462 103.272 233.813 103.272 249.145V453.571C103.272 468.903 115.815 481.254 131.386 481.254H150.741L93.4325 806.633C93.1081 808.23 93 809.827 93 811.317C93 826.649 105.543 839 121.114 839H902.887C904.509 839 906.131 838.894 907.645 838.574C922.999 836.019 933.271 821.645 930.568 806.633ZM178.963 295.992H473.074V74.5305H550.927V295.992H845.038V406.723H178.963V295.992ZM685.007 764.47V598.373C685.007 593.688 681.114 589.855 676.357 589.855H624.455C619.697 589.855 615.804 593.688 615.804 598.373V764.47H408.196V598.373C408.196 593.688 404.304 589.855 399.546 589.855H347.644C342.886 589.855 338.994 593.688 338.994 598.373V764.47H177.665L226.431 487.642H797.461L846.228 764.47H685.007Z" fill="currentColor"></path>
  </symbol>
  <symbol id="icon-colorPreview" viewBox="0 0 1024 1024">
    <path d="M622.336 512L396.501333 286.165333a42.666667 42.666667 0 1 1 60.330667-60.330666L512 281.002667l140.501333-140.501334a163.328 163.328 0 0 1 230.997334 230.997334l-64 64a42.666667 42.666667 0 0 1-60.330667-60.330667l64-64a77.994667 77.994667 0 0 0-110.336-110.336L572.330667 341.333333l225.834666 225.834667a42.666667 42.666667 0 0 1-60.330666 60.330667L682.666667 572.330667l-311.168 311.168A42.666667 42.666667 0 0 1 341.333333 896H170.666667a42.666667 42.666667 0 0 1-42.666667-42.666667v-170.666666a42.666667 42.666667 0 0 1 12.501333-30.165334l234.666667-234.666666a42.666667 42.666667 0 0 1 60.330667 60.330666L213.333333 700.330667V810.666667h110.336l298.666667-298.666667z" fill="currentColor"></path>
  </symbol>
  <symbol id="icon-svgPreview" viewBox="0 0 1024 1024">
    <path d="M938.666667 85.333333H341.333333v219.733334A320 320 0 1 0 718.933333 682.666667H938.666667V85.333333z m-214.016 512A320.042667 320.042667 0 0 0 426.666667 299.349333V170.666667h426.666666v426.666666h-128.682666zM405.333333 384a234.666667 234.666667 0 1 1 0 469.333333 234.666667 234.666667 0 0 1 0-469.333333z" fill="currentColor"></path>
  </symbol>
  <symbol id="icon-plus" viewBox="0 0 24 24">
    <circle cx="12" cy="12" r="10" stroke="currentColor" stroke-width="2" fill="none" />
    <line x1="12" y1="8" x2="12" y2="16" stroke="currentColor" stroke-width="2" />
    <line x1="8" y1="12" x2="16" y2="12" stroke="currentColor" stroke-width="2" />
  </symbol>
  <symbol id="icon-send" viewBox="0 0 1024 1024">
    <path d="M857.6 110.229333A42.666667 42.666667 0 0 1 917.333333 149.333333v597.333334a42.666667 42.666667 0 0 1-56.384 40.405333L675.413333 724.053333l-68.885333 160.469334c-14.08 32.810667-59.328 34.517333-76.309333 4.266666l-1.6-3.157333-116.032-250.218667-281.216-130.496c-32.234667-14.976-32.810667-59.946667-2.368-76.224l3.242666-1.578666zM832 214.506667L253.205333 467.370667l209.493334 97.237333a42.666667 42.666667 0 0 1 19.029333 17.408l1.706667 3.349333 82.389333 177.664 46.741333-108.885333a42.666667 42.666667 0 0 1 49.578667-24.533333l3.349333 0.96L832 687.104V214.506667z m-76.501333 117.973333a42.666667 42.666667 0 0 1 2.496 57.642667l-2.496 2.709333-170.666667 170.666667a42.666667 42.666667 0 0 1-62.826667-57.621334l2.496-2.709333 170.666667-170.666667a42.666667 42.666667 0 0 1 60.330667 0z" fill="currentColor"></path>
  </symbol>
  <symbol id="icon-arrow-up" viewBox="0 0 1024 1024">
    <path d="M902.5 749.2l57.5-57.5-421.6-416.9h-52.7L64 691.7l57.5 57.5 388.1-392.9 392.9 392.9z" fill="currentColor"></path>
  </symbol>
  <symbol id="icon-case-sensitive" viewBox="0 0 1024 1024">
    <path d="M357.236 212.655H288L64 799.127h73.309L198.4 636.218h248.436l61.091 162.909h77.382L357.236 212.655zM218.764 575.127l93.673-252.509c2.715-8.145 5.43-20.364 8.145-36.655h4.073c2.715 16.291 5.43 28.509 8.145 36.655l89.6 252.509H218.764zM960 526.255c0-103.176-48.873-154.764-146.618-154.764-54.303 0-101.818 13.576-142.545 40.727v65.164c40.727-32.582 85.527-48.873 134.4-48.873 57.018 0 85.527 35.297 85.527 105.891l-126.255 16.291c-92.315 13.576-138.473 59.733-138.473 138.473 0 38.012 12.218 67.879 36.655 89.6 24.436 21.721 57.018 32.582 97.745 32.582 57.018 0 100.461-25.794 130.327-77.382v65.164H960V526.255z m-69.236 105.89c0 35.297-10.861 64.485-32.582 87.564s-48.873 34.618-81.455 34.618c-24.436 0-44.121-6.788-59.055-20.364s-22.4-29.867-22.4-48.873c0-29.867 8.145-50.23 24.436-61.091 16.291-10.861 40.727-17.648 73.309-20.364l97.745-16.291v44.801z" fill="currentColor"></path>
  </symbol>
  <symbol id="icon-close" viewBox="0 0 1024 1024">
    <path d="M843.861333 180.138667a42.666667 42.666667 0 0 1 2.176 58.005333l-2.176 2.346667L572.330667 512l271.530666 271.530667a42.666667 42.666667 0 0 1-58.005333 62.506666l-2.346667-2.176L512 572.330667 240.469333 843.861333a42.666667 42.666667 0 0 1-62.506666-58.005333l2.176-2.346667L451.626667 512 180.138667 240.469333a42.666667 42.666667 0 0 1 58.005333-62.506666l2.346667 2.176L512 451.626667 783.530667 180.138667a42.666667 42.666667 0 0 1 60.330666 0z" fill="currentColor"></path>
  </symbol>
  <symbol id="icon-replace" viewBox="0 0 1024 1024">
    <path d="M284.6 194l68.4 68.4V159.8c0-27.4 9.1-50.2 27.4-68.4 18.2-18.2 41-27.4 68.4-27.4h95.8v61.6h-99.2c-6.8 0-13.7 3.4-20.5 10.3-6.8 6.8-10.3 14.8-10.3 23.9v102.6l65-65 44.5 44.5-140.2 143.6-147.1-147.1 47.9-44.5z m379.6 184.6h-54.7V64h54.7l3.4 133.4c13.7-25.1 33.1-37.6 58.1-37.6s43.9 9.7 56.4 29.1 18.8 46.2 18.8 80.4-7.4 61.6-22.2 82.1c-14.8 20.5-34.2 31.3-58.1 32.5s-41.6-8.5-53-29.1h-3.4v23.9z m0-92.3c0 11.4 3.4 22.2 10.3 32.5 6.8 10.3 16.5 15.4 29.1 15.4s22.2-5.7 29.1-17.1c6.8-11.4 10.3-26.8 10.3-46.2s-3.4-34.2-10.3-44.5c-6.8-10.3-16.5-15.4-29.1-15.4s-22.2 4.6-29.1 13.7c-6.8 9.1-10.3 21.7-10.3 37.6v23.9z m-54.7 471.9c-18.2 11.4-37 17.1-56.4 17.1s-34.8-6.3-46.2-18.8c-11.4-12.5-17.1-29.6-17.1-51.3s6.3-38.8 18.8-51.3 28.5-18.8 47.9-18.8 37 5.7 53 17.1v-65c-13.7-6.8-34.2-10.3-61.6-10.3-38.8 0-70.7 12-95.8 35.9-25.1 23.9-36.5 56.4-34.2 97.5 0 36.5 10.8 66.1 32.5 88.9 21.7 22.8 50.7 34.2 87.2 34.2s55.9-5.7 71.8-17.1v-58.1zM736 447l65 65v383l-65 65H288l-65-65V512l65-65h448zM288 895h448V512H288v383z" fill="currentColor"></path>
  </symbol>
  <symbol id="icon-replaceAll" viewBox="0 0 1024 1024">
    <path d="M708.6 64H671v253.1h37.6l3.4-20.5c6.8 16 18.2 23.9 34.2 23.9s29.1-8.5 39.3-25.6c10.3-17.1 15.4-39.3 15.4-66.7s-4.6-49-13.7-65-21.7-23.9-37.6-23.9-28.5 10.3-37.6 30.8l-3.4-106z m0 160.7c0-11.4 2.8-21.7 8.5-30.8s12.5-13.7 20.5-13.7 13.7 4 17.1 12 5.1 19.9 5.1 35.9-2.3 28.5-6.8 37.6-10.8 13.7-18.8 13.7-14.2-4-18.8-12-6.8-16.5-6.8-25.6v-17.1zM363.2 358.1l-41-41-61.6 61.6v-99.2c0-6.8 2.8-13.7 8.5-20.5s13.1-10.3 22.2-10.3h150.5v-58.1H291.3c-25.1 0-46.2 9.1-63.3 27.4-17.1 18.2-25.6 38.8-25.6 61.6v99.2l-65-65-41 41 133.4 136.8 133.4-133.4zM565 289.7c-9.1 20.5-22.8 30.8-41 30.8s-24.5-5.1-32.5-15.4-12-23.4-12-39.3c0-36.5 16-58.1 47.9-65l37.6-3.4c2.3-20.5-5.1-30.8-22.2-30.8s-33.6 5.7-49.6 17.1v-41c6.8-4.6 15.4-8.5 25.6-12 10.3-3.4 19.9-5.1 29.1-5.1 41 0 61.6 26.2 61.6 78.7v109.4H565v-23.9z m0-61.5l-23.9 3.4c-13.7 2.3-20.5 11.4-20.5 27.4s1.7 9.1 5.1 13.7 8.5 6.8 15.4 6.8 13.1-4 18.8-12c5.7-8 8.5-16.5 8.5-25.6v-13.7H565z m-150.5 489c0-52.4-19.4-78.7-58.1-78.7-9.1 2.3-18.8 4.6-29.1 6.8-10.3 2.3-18.8 5.7-25.6 10.3v41c16-11.4 31.9-17.1 47.9-17.1s23.9 10.3 23.9 30.8l-37.6 3.4c-31.9 6.8-47.9 28.5-47.9 65s4 29.1 12 39.3c8 10.3 18.8 15.4 32.5 15.4s31.9-10.3 41-30.8v23.9h41V717.1z m-41 37.6c0 11.4-2.3 20.5-6.8 27.4s-10.3 10.3-17.1 10.3-12-2.3-15.4-6.8c-3.4-4.6-5.1-9.1-5.1-13.7 0-16 6.8-25.1 20.5-27.4l23.9-3.4v13.7z m188.1 78.7c-25.1 0-45-8.5-59.8-25.6-14.8-17.1-22.2-40.5-22.2-70.1s8-53.6 23.9-71.8c16-18.2 37.6-27.4 65-27.4 18.2 2.3 30.8 5.7 37.6 10.3v47.9c-9.1-9.1-19.9-13.7-32.5-13.7s-23.4 5.1-32.5 15.4-13.7 23.4-13.7 39.3 4 28.5 12 37.6c8 9.1 18.8 13.7 32.5 13.7s26.2-4.6 37.6-13.7v47.9c-11.4 6.8-27.4 10.3-47.9 10.3zM96.5 895l61.6 65h578l65-65V577l-65-65H158l-61.6 65v318zM736 577v318H158V577h578z m130-130v386.4l61.6-65V446.9l-61.6-65H414.6l-61.6 65h513z" fill="currentColor"></path>
  </symbol>
  <symbol id="icon-book" viewBox="0 0 1024 1024">
    <path d="M832 96H288a128 128 0 0 0-128 128v672a32 32 0 0 0 32 32h576a32 32 0 0 0 0-64H224a64 64 0 0 1 64-64h544a32 32 0 0 0 32-32V128a32 32 0 0 0-32-32z m-32 640H288a127.296 127.296 0 0 0-64 17.152V224a64 64 0 0 1 64-64h512v576z" fill="currentColor"></path>
  </symbol>
  <symbol id="icon-type-chart" viewBox="0 0 1024 1024">
    <path d="M834.1 469.2c-19.5-43.8-47.4-82.6-82.9-115.2l-29.1-26.7c-4.3-3.8-11.1-2.1-13 3.3l-13 37.3c-8.1 23.4-23 47.3-44.1 70.8-1.4 1.5-3 1.9-4.1 2-1.1 0.1-2.8-0.1-4.3-1.5-1.4-1.2-2.1-3-2-4.8 3.7-60.2-14.3-128.1-53.7-202C555.3 171 510 123.1 453.4 89.7l-41.3-24.3c-5.4-3.2-12.3 1-12 7.3l2.2 48c1.5 32.8-2.3 61.8-11.3 85.9-11 29.5-26.8 56.9-47 81.5-14.2 17.2-30.1 32.7-47.5 46.1-42.1 32.3-76.8 74.4-100.3 121.5C172.5 503.3 160 556.6 160 610c0 47.2 9.3 92.9 27.7 136 17.8 41.5 43.2 78.9 75.5 110.9 32.4 32 70 57.2 111.9 74.7C418.5 949.8 464.5 959 512 959s93.5-9.2 136.9-27.3c41.9-17.5 79.6-42.6 111.9-74.7 32.4-32 57.8-69.4 75.5-110.9 18.4-43.1 27.7-88.8 27.7-136 0-48.8-10-96.2-29.9-140.9zM713 808.5c-53.7 53.2-125 82.4-201 82.4s-147.3-29.2-201-82.4c-53.5-53.1-83-123.5-83-198.4 0-43.5 9.8-85.2 29.1-124 18.8-37.9 46.8-71.8 80.8-97.9 21.5-16.4 41.2-35.5 58.6-56.8 25-30.5 44.6-64.5 58.2-101 5.4-14.5 9.5-30 12.1-46.5 24.1 22.2 44.3 49 61.2 80.4 33.4 62.6 48.8 118.3 45.8 165.7-1.4 22.8 7.5 44.5 24.4 59.8 14.7 13.2 33.7 19.9 53.4 18.8 19.7-1 37.8-9.7 51-24.4 13.3-14.9 24.8-30.1 34.4-45.6 14 17.9 25.7 37.4 35 58.4 15.9 35.8 24 73.9 24 113.1 0 74.9-29.5 145.4-83 198.4z" fill="currentColor"></path>
  </symbol>
  <symbol id="icon-star" viewBox="0 0 1024 1024">
    <path d="M378.453333 265.6a40.362667 40.362667 0 0 1 74.410667 0l37.461333 85.802667a330.410667 330.410667 0 0 0 168.106667 170.282666l103.082667 45.738667c32.768 14.549333 32.768 62.208 0 76.8l-99.84 44.288a330.538667 330.538667 0 0 0-170.538667 176l-37.973333 91.392a40.362667 40.362667 0 0 1-75.008 0l-37.888-91.392a330.581333 330.581333 0 0 0-170.581334-176l-99.84-44.330667c-32.768-14.506667-32.768-62.208 0-76.757333l103.04-45.738667a330.410667 330.410667 0 0 0 168.106667-170.282666l37.461333-85.76zM792.917333 96.213333a16.213333 16.213333 0 0 1 29.866667 0l7.893333 18.090667c14.08 32.256 39.381333 57.941333 70.997333 72.021333l24.32 10.794667a16.981333 16.981333 0 0 1 0 30.805333l-22.954667 10.24a139.690667 139.690667 0 0 0-72.021333 74.368l-8.106667 19.541334a16.213333 16.213333 0 0 1-30.122667 0l-8.106666-19.541334a139.648 139.648 0 0 0-72.021334-74.368l-22.954666-10.24a16.981333 16.981333 0 0 1 0-30.805333l24.32-10.794667a139.562667 139.562667 0 0 0 70.997333-72.021333l7.893333-18.090667z" fill="currentColor"></path>
  </symbol>
</svg>